M48
;Layer_Color=9474304
;FILE_FORMAT=4:4
METRIC,LZ
;TYPE=PLATED
T1F00S00C0.2000
T2F00S00C0.2000
T3F00S00C0.3000
T4F00S00C1.0000
T5F00S00C3.0000
%
T01
X0017446Y0002775
Y0016745
X00192Y002135
X001565Y0022225
X001665Y00242446
X001915Y002635
X00173Y0028675
X0016675Y00315
X001665Y0034225
X0014Y003485
X001335
X0012Y0034875
X00113
X001155Y0033
X00105Y0032975
Y0031875
X0013375Y0029925
Y0028675
X0003275Y0025102
X00023Y002145
X0002594Y0015475
Y0014205
X0005575Y0017941
X00205Y0019375
X00233Y0020325
X0023125Y001765
X0023025Y00137
X0021675Y00135
X0021225Y0014175
X002105Y00229
X00229Y00253
X00217Y0029925
X0022625Y00315
X00226Y00342
T02
X0012875Y0031675
T03
X0006025Y0002
X0008025
X0010025
X0012025
X0014025
X0015025Y0004
X0013025
X0011025
X0009025
X0007025
X0005025
X0006025Y0006
X0004025
X0005025Y0008
X0006025Y001
X0004025
X0005025Y0012
X0006025Y0014
X0008025
X0009025Y0016
X0007025
X0008025Y0018
Y0022
X0009025Y0024
X0008025Y00340001
X0004025Y0018
Y0014
X0016025
T04
X0004975Y0024
Y00311
T05
X0022Y0002
X0002Y0035
M30
