G04*
G04 #@! TF.GenerationSoftware,Altium Limited,Altium Designer,19.0.11 (319)*
G04*
G04 Layer_Physical_Order=4*
G04 Layer_Color=16711680*
%FSLAX44Y44*%
%MOMM*%
G71*
G01*
G75*
%ADD12C,0.2000*%
%ADD44C,0.5000*%
%ADD46C,0.1800*%
%ADD47C,1.5240*%
%ADD48C,0.6000*%
%ADD49C,0.4500*%
%ADD50C,1.0000*%
%ADD57R,0.1800X0.6900*%
%ADD58R,0.7300X0.4900*%
G36*
X240000Y0D02*
X0D01*
Y370000D01*
X240000D01*
Y0D01*
D02*
G37*
%LPC*%
G36*
X162750Y367212D02*
X117190D01*
X116343Y367044D01*
X115625Y366564D01*
X111435Y362375D01*
X111053Y361802D01*
X110132Y361532D01*
X109722Y361470D01*
X109560Y361470D01*
X105623D01*
X105000Y361594D01*
X104377Y361470D01*
X100080D01*
Y354030D01*
X101156D01*
Y341970D01*
X100080D01*
Y334530D01*
X101156D01*
Y329750D01*
Y318750D01*
X101449Y317279D01*
X102282Y316032D01*
X103529Y315199D01*
X105000Y314906D01*
X106471Y315199D01*
X107598Y315951D01*
X108163Y315813D01*
X108868Y315466D01*
Y235657D01*
X56134Y182923D01*
X55750Y182999D01*
X54377Y182726D01*
X53212Y181948D01*
X52434Y180784D01*
X52161Y179410D01*
X52434Y178037D01*
X53212Y176872D01*
X54377Y176094D01*
X54946Y175981D01*
X55364Y174603D01*
X26324Y145563D01*
X25940Y145639D01*
X24903Y145433D01*
X23633Y146153D01*
Y149313D01*
X25556Y151237D01*
X25940Y151161D01*
X27313Y151434D01*
X28478Y152212D01*
X29256Y153377D01*
X29529Y154750D01*
X29256Y156123D01*
X28478Y157288D01*
X27313Y158066D01*
X25940Y158339D01*
X24567Y158066D01*
X23402Y157288D01*
X22624Y156123D01*
X22351Y154750D01*
X22427Y154366D01*
X19856Y151795D01*
X19376Y151077D01*
X19207Y150230D01*
Y140178D01*
X19376Y139331D01*
X19856Y138613D01*
X22503Y135965D01*
X23221Y135486D01*
X24068Y135317D01*
X27812D01*
X28659Y135486D01*
X29377Y135965D01*
X125064Y231653D01*
X125166Y231805D01*
X126435Y231419D01*
Y213160D01*
X126612Y212274D01*
X127113Y211523D01*
X170924Y167713D01*
X170871Y167450D01*
X171144Y166077D01*
X171922Y164912D01*
X173087Y164134D01*
X174460Y163861D01*
X175833Y164134D01*
X176998Y164912D01*
X177776Y166077D01*
X178049Y167450D01*
X177776Y168823D01*
X176998Y169988D01*
X175833Y170766D01*
X174460Y171039D01*
X174197Y170987D01*
X131065Y214119D01*
Y282784D01*
X132334Y283462D01*
X132377Y283434D01*
X133750Y283161D01*
X135123Y283434D01*
X136288Y284212D01*
X136437Y284436D01*
X170313D01*
X170462Y284212D01*
X171627Y283434D01*
X173000Y283161D01*
X174373Y283434D01*
X175538Y284212D01*
X176316Y285377D01*
X176589Y286750D01*
X176316Y288123D01*
X175538Y289288D01*
X174373Y290066D01*
X173000Y290339D01*
X171627Y290066D01*
X170462Y289288D01*
X170313Y289065D01*
X136437D01*
X136288Y289288D01*
X135123Y290066D01*
X133750Y290339D01*
X132377Y290066D01*
X132334Y290038D01*
X131065Y290716D01*
Y295284D01*
X132334Y295962D01*
X132377Y295934D01*
X133750Y295661D01*
X135123Y295934D01*
X136288Y296712D01*
X136437Y296936D01*
X214313D01*
X214462Y296712D01*
X215627Y295934D01*
X217000Y295661D01*
X217938Y295847D01*
X219207Y295080D01*
Y140587D01*
X217134Y138513D01*
X216750Y138589D01*
X215377Y138316D01*
X214212Y137538D01*
X213434Y136373D01*
X213161Y135000D01*
X213434Y133627D01*
X214212Y132462D01*
X215377Y131684D01*
X216750Y131411D01*
X218123Y131684D01*
X219288Y132462D01*
X220066Y133627D01*
X220339Y135000D01*
X220263Y135384D01*
X222985Y138105D01*
X223464Y138823D01*
X223633Y139670D01*
Y306330D01*
X223464Y307177D01*
X222985Y307894D01*
X164314Y366564D01*
X163597Y367044D01*
X162750Y367212D01*
D02*
G37*
G36*
X20000Y366349D02*
X16810Y366035D01*
X13744Y365104D01*
X10917Y363593D01*
X8440Y361560D01*
X6407Y359083D01*
X4896Y356256D01*
X3965Y353190D01*
X3651Y350000D01*
X3965Y346810D01*
X4896Y343744D01*
X6407Y340917D01*
X8440Y338440D01*
X10917Y336407D01*
X13744Y334896D01*
X16810Y333965D01*
X20000Y333651D01*
X23189Y333965D01*
X26256Y334896D01*
X29083Y336407D01*
X31560Y338440D01*
X33593Y340917D01*
X35104Y343744D01*
X36035Y346810D01*
X36349Y350000D01*
X36035Y353190D01*
X35104Y356256D01*
X33593Y359083D01*
X31560Y361560D01*
X29083Y363593D01*
X26256Y365104D01*
X23189Y366035D01*
X20000Y366349D01*
D02*
G37*
G36*
X49750Y317393D02*
X47304Y316906D01*
X45230Y315520D01*
X43844Y313446D01*
X43357Y311000D01*
X43844Y308554D01*
X45230Y306480D01*
X47304Y305094D01*
X49750Y304607D01*
X52196Y305094D01*
X54270Y306480D01*
X55656Y308554D01*
X56143Y311000D01*
X55656Y313446D01*
X54270Y315520D01*
X52196Y316906D01*
X49750Y317393D01*
D02*
G37*
G36*
X229000Y256589D02*
X227627Y256316D01*
X226462Y255538D01*
X225684Y254373D01*
X225411Y253000D01*
X225684Y251627D01*
X226462Y250462D01*
X227627Y249684D01*
X229000Y249411D01*
X230373Y249684D01*
X231538Y250462D01*
X232316Y251627D01*
X232589Y253000D01*
X232316Y254373D01*
X231538Y255538D01*
X230373Y256316D01*
X229000Y256589D01*
D02*
G37*
G36*
X49750Y246393D02*
X47304Y245906D01*
X45230Y244520D01*
X43844Y242446D01*
X43357Y240000D01*
X43844Y237554D01*
X45230Y235480D01*
X47304Y234094D01*
X49750Y233607D01*
X52196Y234094D01*
X54270Y235480D01*
X55656Y237554D01*
X56143Y240000D01*
X55656Y242446D01*
X54270Y244520D01*
X52196Y245906D01*
X49750Y246393D01*
D02*
G37*
G36*
X205000Y197339D02*
X203627Y197066D01*
X202462Y196288D01*
X201684Y195123D01*
X201411Y193750D01*
X201684Y192377D01*
X202462Y191212D01*
X203627Y190434D01*
X205000Y190161D01*
X206373Y190434D01*
X207538Y191212D01*
X208316Y192377D01*
X208589Y193750D01*
X208316Y195123D01*
X207538Y196288D01*
X206373Y197066D01*
X205000Y197339D01*
D02*
G37*
G36*
X174460Y31339D02*
X173087Y31066D01*
X171922Y30288D01*
X171144Y29123D01*
X170871Y27750D01*
X171144Y26377D01*
X171922Y25212D01*
X173087Y24434D01*
X174460Y24161D01*
X175833Y24434D01*
X176998Y25212D01*
X177776Y26377D01*
X178049Y27750D01*
X177776Y29123D01*
X176998Y30288D01*
X175833Y31066D01*
X174460Y31339D01*
D02*
G37*
G36*
X220000Y36349D02*
X216810Y36035D01*
X213744Y35104D01*
X210917Y33593D01*
X208440Y31560D01*
X206406Y29083D01*
X204896Y26256D01*
X203965Y23189D01*
X203651Y20000D01*
X203965Y16810D01*
X204896Y13744D01*
X206406Y10917D01*
X208440Y8440D01*
X210917Y6407D01*
X213744Y4896D01*
X216810Y3965D01*
X220000Y3651D01*
X223190Y3965D01*
X226256Y4896D01*
X229083Y6407D01*
X231560Y8440D01*
X233593Y10917D01*
X235104Y13744D01*
X236035Y16810D01*
X236349Y20000D01*
X236035Y23189D01*
X235104Y26256D01*
X233593Y29083D01*
X231560Y31560D01*
X229083Y33593D01*
X226256Y35104D01*
X223190Y36035D01*
X220000Y36349D01*
D02*
G37*
%LPD*%
G36*
X219207Y305413D02*
Y303420D01*
X217938Y302652D01*
X217000Y302839D01*
X215627Y302566D01*
X214462Y301788D01*
X214313Y301565D01*
X136437D01*
X136288Y301788D01*
X135123Y302566D01*
X133750Y302839D01*
X132377Y302566D01*
X132334Y302538D01*
X131065Y303216D01*
Y314063D01*
X131288Y314212D01*
X132066Y315377D01*
X132339Y316750D01*
X132066Y318123D01*
X131288Y319288D01*
X130123Y320066D01*
X128750Y320339D01*
X127377Y320066D01*
X126982Y319802D01*
X125712Y320481D01*
Y334530D01*
X129170D01*
Y343970D01*
X120522D01*
X120397Y345240D01*
X121373Y345434D01*
X122538Y346212D01*
X123316Y347377D01*
X123338Y347487D01*
X124716Y347906D01*
X125686Y346936D01*
X126404Y346456D01*
X127250Y346287D01*
X130745D01*
X130962Y345962D01*
X132127Y345184D01*
X133500Y344911D01*
X134873Y345184D01*
X136038Y345962D01*
X136115Y346078D01*
X137385D01*
X137462Y345962D01*
X138627Y345184D01*
X140000Y344911D01*
X141373Y345184D01*
X142538Y345962D01*
X143316Y347127D01*
X143589Y348500D01*
X143316Y349873D01*
X142538Y351038D01*
X141373Y351816D01*
X140000Y352089D01*
X139616Y352013D01*
X137144Y354484D01*
X136427Y354964D01*
X135580Y355132D01*
X131578D01*
X130946Y355765D01*
X130228Y356244D01*
X129381Y356413D01*
X129213D01*
Y356750D01*
X129170Y356964D01*
Y361470D01*
X119924D01*
X119245Y362740D01*
X119277Y362788D01*
X161833D01*
X219207Y305413D01*
D02*
G37*
D12*
X133750Y286750D02*
X173000D01*
X133750Y299250D02*
X217000D01*
X128750Y213160D02*
Y316750D01*
Y213160D02*
X174460Y167450D01*
D44*
X105000Y329750D02*
Y338250D01*
Y318750D02*
Y329750D01*
Y338250D02*
Y357750D01*
D46*
X162750Y365000D02*
X221420Y306330D01*
Y139670D02*
Y306330D01*
X216750Y135000D02*
X221420Y139670D01*
X127000Y354200D02*
X129381D01*
X111080Y331831D02*
X113000Y333751D01*
X111080Y234740D02*
Y331831D01*
X113000Y333751D02*
Y339250D01*
X123500Y233218D02*
Y339250D01*
X27812Y137530D02*
X123500Y233218D01*
X55750Y179410D02*
X111080Y234740D01*
X116500Y331000D02*
Y339250D01*
X115500Y330000D02*
X116500Y331000D01*
X120000Y348750D02*
Y356750D01*
X116500Y352250D02*
Y356750D01*
X113000Y348750D02*
X116500Y352250D01*
X113000Y348750D02*
Y348750D01*
X21420Y150230D02*
X25940Y154750D01*
X21420Y140178D02*
Y150230D01*
Y140178D02*
X24068Y137530D01*
X27812D01*
X120000Y236110D02*
Y339250D01*
X25940Y142050D02*
X120000Y236110D01*
X117190Y365000D02*
X162750D01*
X113000Y360810D02*
X117190Y365000D01*
X113000Y356750D02*
Y360810D01*
X135580Y352920D02*
X140000Y348500D01*
X130661Y352920D02*
X135580D01*
X129381Y354200D02*
X130661Y352920D01*
X123500Y352250D02*
X127250Y348500D01*
X133500D01*
X127000Y354200D02*
Y356750D01*
X123500Y352250D02*
Y356750D01*
D47*
X20000Y350000D02*
D03*
X220000Y20000D02*
D03*
D48*
X160250Y140000D02*
D03*
X150250Y40000D02*
D03*
X140250Y20000D02*
D03*
X130250Y40000D02*
D03*
X120250Y20000D02*
D03*
X110250Y40000D02*
D03*
X100250Y20000D02*
D03*
X80250Y340001D02*
D03*
X90250Y240000D02*
D03*
X80250Y220000D02*
D03*
Y180000D02*
D03*
X90250Y160000D02*
D03*
X80250Y140000D02*
D03*
X90250Y40000D02*
D03*
X80250Y20000D02*
D03*
X70250Y160000D02*
D03*
X60250Y140000D02*
D03*
Y100000D02*
D03*
Y60000D02*
D03*
X70250Y40000D02*
D03*
X60250Y20000D02*
D03*
X40250Y180000D02*
D03*
Y140000D02*
D03*
X50250Y120000D02*
D03*
X40250Y100000D02*
D03*
X50250Y80000D02*
D03*
X40250Y60000D02*
D03*
X50250Y40000D02*
D03*
D49*
X210500Y229000D02*
D03*
X192000Y213500D02*
D03*
X233000Y203250D02*
D03*
X231250Y176500D02*
D03*
X156500Y222250D02*
D03*
X191500Y263500D02*
D03*
X166500Y242446D02*
D03*
X32750Y251020D02*
D03*
X23000Y214500D02*
D03*
X226250Y315000D02*
D03*
X226000Y342000D02*
D03*
X166750Y315000D02*
D03*
X166500Y342250D02*
D03*
X230250Y137000D02*
D03*
X174460Y27750D02*
D03*
X229000Y253000D02*
D03*
X205000Y193750D02*
D03*
X105000Y329750D02*
D03*
Y318750D02*
D03*
X173000Y286750D02*
D03*
X133750D02*
D03*
Y299250D02*
D03*
X217000D02*
D03*
X216750Y135000D02*
D03*
X128750Y316750D02*
D03*
X115500Y330000D02*
D03*
X120000Y348750D02*
D03*
X140000Y348500D02*
D03*
X133500D02*
D03*
X113000Y348750D02*
D03*
X25940Y142050D02*
D03*
Y154750D02*
D03*
X174460Y167450D02*
D03*
X55750Y179410D02*
D03*
X212250Y141750D02*
D03*
D50*
X49750Y240000D02*
D03*
Y311000D02*
D03*
D57*
X127000Y356750D02*
D03*
X123500D02*
D03*
X120000D02*
D03*
X116500D02*
D03*
X113000D02*
D03*
X127000Y339250D02*
D03*
X120000D02*
D03*
X116500D02*
D03*
X113000D02*
D03*
X123500D02*
D03*
D58*
X135000Y338250D02*
D03*
Y357750D02*
D03*
X105000Y338250D02*
D03*
Y357750D02*
D03*
M02*
